<mxfile host="app.diagrams.net" modified="2023-12-29T03:25:55.355Z" agent="Mozilla/5.0 (Windows NT 10.0; Win64; x64) AppleWebKit/537.36 (KHTML, like Gecko) Chrome/120.0.0.0 Safari/537.36" etag="OpEdQ0ykrak4QbP8BOeI" version="22.1.15" type="device">
  <diagram id="C5RBs43oDa-KdzZeNtuy" name="Page-1">
    <mxGraphModel dx="2261" dy="780" grid="1" gridSize="10" guides="1" tooltips="1" connect="1" arrows="1" fold="1" page="1" pageScale="1" pageWidth="827" pageHeight="1169" math="0" shadow="0">
      <root>
        <mxCell id="WIyWlLk6GJQsqaUBKTNV-0" />
        <mxCell id="WIyWlLk6GJQsqaUBKTNV-1" parent="WIyWlLk6GJQsqaUBKTNV-0" />
        <mxCell id="y_IT6c1gXUOtqLj8L9jw-0" value="[회원가입 FlowChart]" style="text;html=1;align=center;verticalAlign=middle;resizable=0;points=[];autosize=1;strokeColor=none;fillColor=none;" vertex="1" parent="WIyWlLk6GJQsqaUBKTNV-1">
          <mxGeometry x="10" y="28" width="140" height="30" as="geometry" />
        </mxCell>
        <mxCell id="y_IT6c1gXUOtqLj8L9jw-3" value="" style="edgeStyle=orthogonalEdgeStyle;rounded=0;orthogonalLoop=1;jettySize=auto;html=1;" edge="1" parent="WIyWlLk6GJQsqaUBKTNV-1" source="y_IT6c1gXUOtqLj8L9jw-1" target="y_IT6c1gXUOtqLj8L9jw-2">
          <mxGeometry relative="1" as="geometry" />
        </mxCell>
        <mxCell id="y_IT6c1gXUOtqLj8L9jw-1" value="시작" style="strokeWidth=2;html=1;shape=mxgraph.flowchart.terminator;whiteSpace=wrap;" vertex="1" parent="WIyWlLk6GJQsqaUBKTNV-1">
          <mxGeometry x="230" y="58" width="100" height="42" as="geometry" />
        </mxCell>
        <mxCell id="y_IT6c1gXUOtqLj8L9jw-5" value="" style="edgeStyle=orthogonalEdgeStyle;rounded=0;orthogonalLoop=1;jettySize=auto;html=1;" edge="1" parent="WIyWlLk6GJQsqaUBKTNV-1" source="y_IT6c1gXUOtqLj8L9jw-2" target="y_IT6c1gXUOtqLj8L9jw-4">
          <mxGeometry relative="1" as="geometry" />
        </mxCell>
        <mxCell id="y_IT6c1gXUOtqLj8L9jw-2" value="ID입력" style="shape=parallelogram;perimeter=parallelogramPerimeter;whiteSpace=wrap;html=1;fixedSize=1;strokeWidth=2;" vertex="1" parent="WIyWlLk6GJQsqaUBKTNV-1">
          <mxGeometry x="220" y="130" width="120" height="30" as="geometry" />
        </mxCell>
        <mxCell id="y_IT6c1gXUOtqLj8L9jw-7" value="" style="edgeStyle=orthogonalEdgeStyle;rounded=0;orthogonalLoop=1;jettySize=auto;html=1;" edge="1" parent="WIyWlLk6GJQsqaUBKTNV-1" source="y_IT6c1gXUOtqLj8L9jw-4" target="y_IT6c1gXUOtqLj8L9jw-6">
          <mxGeometry relative="1" as="geometry" />
        </mxCell>
        <mxCell id="y_IT6c1gXUOtqLj8L9jw-4" value="중복버튼 클릭" style="shape=parallelogram;perimeter=parallelogramPerimeter;whiteSpace=wrap;html=1;fixedSize=1;strokeWidth=2;" vertex="1" parent="WIyWlLk6GJQsqaUBKTNV-1">
          <mxGeometry x="220" y="190" width="120" height="30" as="geometry" />
        </mxCell>
        <mxCell id="y_IT6c1gXUOtqLj8L9jw-9" value="" style="edgeStyle=orthogonalEdgeStyle;rounded=0;orthogonalLoop=1;jettySize=auto;html=1;" edge="1" parent="WIyWlLk6GJQsqaUBKTNV-1" source="y_IT6c1gXUOtqLj8L9jw-6" target="y_IT6c1gXUOtqLj8L9jw-8">
          <mxGeometry relative="1" as="geometry" />
        </mxCell>
        <mxCell id="y_IT6c1gXUOtqLj8L9jw-28" value="" style="edgeStyle=orthogonalEdgeStyle;rounded=0;orthogonalLoop=1;jettySize=auto;html=1;" edge="1" parent="WIyWlLk6GJQsqaUBKTNV-1" source="y_IT6c1gXUOtqLj8L9jw-6" target="y_IT6c1gXUOtqLj8L9jw-17">
          <mxGeometry relative="1" as="geometry" />
        </mxCell>
        <mxCell id="y_IT6c1gXUOtqLj8L9jw-6" value="ID중복 확인" style="whiteSpace=wrap;html=1;strokeWidth=2;" vertex="1" parent="WIyWlLk6GJQsqaUBKTNV-1">
          <mxGeometry x="220" y="250" width="120" height="40" as="geometry" />
        </mxCell>
        <mxCell id="y_IT6c1gXUOtqLj8L9jw-11" value="" style="edgeStyle=orthogonalEdgeStyle;rounded=0;orthogonalLoop=1;jettySize=auto;html=1;" edge="1" parent="WIyWlLk6GJQsqaUBKTNV-1" source="y_IT6c1gXUOtqLj8L9jw-8" target="y_IT6c1gXUOtqLj8L9jw-10">
          <mxGeometry relative="1" as="geometry" />
        </mxCell>
        <mxCell id="y_IT6c1gXUOtqLj8L9jw-8" value="회원Tbl" style="strokeWidth=2;html=1;shape=mxgraph.flowchart.database;whiteSpace=wrap;" vertex="1" parent="WIyWlLk6GJQsqaUBKTNV-1">
          <mxGeometry x="400" y="240" width="60" height="60" as="geometry" />
        </mxCell>
        <mxCell id="y_IT6c1gXUOtqLj8L9jw-18" value="" style="edgeStyle=orthogonalEdgeStyle;rounded=0;orthogonalLoop=1;jettySize=auto;html=1;" edge="1" parent="WIyWlLk6GJQsqaUBKTNV-1" source="y_IT6c1gXUOtqLj8L9jw-10" target="y_IT6c1gXUOtqLj8L9jw-17">
          <mxGeometry relative="1" as="geometry" />
        </mxCell>
        <mxCell id="y_IT6c1gXUOtqLj8L9jw-10" value="ID존재?" style="rhombus;whiteSpace=wrap;html=1;strokeWidth=2;" vertex="1" parent="WIyWlLk6GJQsqaUBKTNV-1">
          <mxGeometry x="390" y="330" width="80" height="50" as="geometry" />
        </mxCell>
        <mxCell id="y_IT6c1gXUOtqLj8L9jw-12" value="" style="endArrow=classic;html=1;rounded=0;exitX=1;exitY=0.5;exitDx=0;exitDy=0;" edge="1" parent="WIyWlLk6GJQsqaUBKTNV-1" source="y_IT6c1gXUOtqLj8L9jw-10">
          <mxGeometry width="50" height="50" relative="1" as="geometry">
            <mxPoint x="510" y="350" as="sourcePoint" />
            <mxPoint x="280" y="110" as="targetPoint" />
            <Array as="points">
              <mxPoint x="500" y="355" />
              <mxPoint x="500" y="110" />
            </Array>
          </mxGeometry>
        </mxCell>
        <mxCell id="y_IT6c1gXUOtqLj8L9jw-13" value="YES" style="edgeLabel;html=1;align=center;verticalAlign=middle;resizable=0;points=[];" vertex="1" connectable="0" parent="y_IT6c1gXUOtqLj8L9jw-12">
          <mxGeometry x="-0.4626" y="-1" relative="1" as="geometry">
            <mxPoint x="19" y="58" as="offset" />
          </mxGeometry>
        </mxCell>
        <mxCell id="y_IT6c1gXUOtqLj8L9jw-14" value="NO" style="text;html=1;align=center;verticalAlign=middle;resizable=0;points=[];autosize=1;strokeColor=none;fillColor=none;" vertex="1" parent="WIyWlLk6GJQsqaUBKTNV-1">
          <mxGeometry x="350" y="360" width="40" height="30" as="geometry" />
        </mxCell>
        <mxCell id="y_IT6c1gXUOtqLj8L9jw-15" value="MESSAGE" style="swimlane;whiteSpace=wrap;html=1;" vertex="1" parent="WIyWlLk6GJQsqaUBKTNV-1">
          <mxGeometry x="550" y="278" width="200" height="72" as="geometry" />
        </mxCell>
        <mxCell id="y_IT6c1gXUOtqLj8L9jw-16" value="동일한 ID가 존재합니다." style="text;html=1;align=center;verticalAlign=middle;resizable=0;points=[];autosize=1;strokeColor=none;fillColor=none;" vertex="1" parent="y_IT6c1gXUOtqLj8L9jw-15">
          <mxGeometry y="28" width="150" height="30" as="geometry" />
        </mxCell>
        <mxCell id="y_IT6c1gXUOtqLj8L9jw-23" value="" style="edgeStyle=orthogonalEdgeStyle;rounded=0;orthogonalLoop=1;jettySize=auto;html=1;" edge="1" parent="WIyWlLk6GJQsqaUBKTNV-1" source="y_IT6c1gXUOtqLj8L9jw-17" target="y_IT6c1gXUOtqLj8L9jw-22">
          <mxGeometry relative="1" as="geometry" />
        </mxCell>
        <mxCell id="y_IT6c1gXUOtqLj8L9jw-17" value="PW입력" style="shape=parallelogram;perimeter=parallelogramPerimeter;whiteSpace=wrap;html=1;fixedSize=1;strokeWidth=2;" vertex="1" parent="WIyWlLk6GJQsqaUBKTNV-1">
          <mxGeometry x="220" y="340" width="120" height="30" as="geometry" />
        </mxCell>
        <mxCell id="y_IT6c1gXUOtqLj8L9jw-19" value="MESSAGE" style="swimlane;whiteSpace=wrap;html=1;" vertex="1" parent="WIyWlLk6GJQsqaUBKTNV-1">
          <mxGeometry x="350" y="390" width="200" height="70" as="geometry" />
        </mxCell>
        <mxCell id="y_IT6c1gXUOtqLj8L9jw-20" value="회원가입 가능한 ID입니다." style="text;html=1;align=center;verticalAlign=middle;resizable=0;points=[];autosize=1;strokeColor=none;fillColor=none;" vertex="1" parent="y_IT6c1gXUOtqLj8L9jw-19">
          <mxGeometry x="10" y="30" width="170" height="30" as="geometry" />
        </mxCell>
        <mxCell id="y_IT6c1gXUOtqLj8L9jw-25" value="" style="edgeStyle=orthogonalEdgeStyle;rounded=0;orthogonalLoop=1;jettySize=auto;html=1;" edge="1" parent="WIyWlLk6GJQsqaUBKTNV-1" source="y_IT6c1gXUOtqLj8L9jw-22" target="y_IT6c1gXUOtqLj8L9jw-24">
          <mxGeometry relative="1" as="geometry" />
        </mxCell>
        <mxCell id="y_IT6c1gXUOtqLj8L9jw-27" value="" style="edgeStyle=orthogonalEdgeStyle;rounded=0;orthogonalLoop=1;jettySize=auto;html=1;" edge="1" parent="WIyWlLk6GJQsqaUBKTNV-1" source="y_IT6c1gXUOtqLj8L9jw-22" target="y_IT6c1gXUOtqLj8L9jw-26">
          <mxGeometry relative="1" as="geometry" />
        </mxCell>
        <mxCell id="y_IT6c1gXUOtqLj8L9jw-22" value="PW 암호화정책&amp;nbsp;&lt;br&gt;유효성 검사" style="whiteSpace=wrap;html=1;strokeWidth=2;" vertex="1" parent="WIyWlLk6GJQsqaUBKTNV-1">
          <mxGeometry x="220" y="420" width="120" height="50" as="geometry" />
        </mxCell>
        <mxCell id="y_IT6c1gXUOtqLj8L9jw-30" style="edgeStyle=orthogonalEdgeStyle;rounded=0;orthogonalLoop=1;jettySize=auto;html=1;exitX=0.5;exitY=0;exitDx=0;exitDy=0;" edge="1" parent="WIyWlLk6GJQsqaUBKTNV-1" source="y_IT6c1gXUOtqLj8L9jw-24">
          <mxGeometry relative="1" as="geometry">
            <mxPoint x="280" y="310" as="targetPoint" />
            <Array as="points">
              <mxPoint x="110" y="310" />
            </Array>
          </mxGeometry>
        </mxCell>
        <mxCell id="y_IT6c1gXUOtqLj8L9jw-33" style="edgeStyle=orthogonalEdgeStyle;rounded=0;orthogonalLoop=1;jettySize=auto;html=1;exitX=0.5;exitY=1;exitDx=0;exitDy=0;entryX=0;entryY=0.5;entryDx=0;entryDy=0;" edge="1" parent="WIyWlLk6GJQsqaUBKTNV-1" source="y_IT6c1gXUOtqLj8L9jw-24" target="y_IT6c1gXUOtqLj8L9jw-26">
          <mxGeometry relative="1" as="geometry">
            <Array as="points">
              <mxPoint x="110" y="533" />
              <mxPoint x="226" y="533" />
            </Array>
          </mxGeometry>
        </mxCell>
        <mxCell id="y_IT6c1gXUOtqLj8L9jw-24" value="정책을 &lt;br&gt;만족하는지" style="rhombus;whiteSpace=wrap;html=1;strokeWidth=2;" vertex="1" parent="WIyWlLk6GJQsqaUBKTNV-1">
          <mxGeometry x="70" y="405" width="80" height="80" as="geometry" />
        </mxCell>
        <mxCell id="y_IT6c1gXUOtqLj8L9jw-26" value="PW 다시 입력" style="shape=parallelogram;perimeter=parallelogramPerimeter;whiteSpace=wrap;html=1;fixedSize=1;strokeWidth=2;" vertex="1" parent="WIyWlLk6GJQsqaUBKTNV-1">
          <mxGeometry x="220" y="510" width="120" height="45" as="geometry" />
        </mxCell>
        <mxCell id="y_IT6c1gXUOtqLj8L9jw-29" value="" style="endArrow=classic;html=1;rounded=0;" edge="1" parent="WIyWlLk6GJQsqaUBKTNV-1">
          <mxGeometry width="50" height="50" relative="1" as="geometry">
            <mxPoint x="390" y="410" as="sourcePoint" />
            <mxPoint x="440" y="360" as="targetPoint" />
          </mxGeometry>
        </mxCell>
        <mxCell id="y_IT6c1gXUOtqLj8L9jw-31" value="NO" style="text;html=1;align=center;verticalAlign=middle;resizable=0;points=[];autosize=1;strokeColor=none;fillColor=none;" vertex="1" parent="WIyWlLk6GJQsqaUBKTNV-1">
          <mxGeometry x="110" y="380" width="40" height="30" as="geometry" />
        </mxCell>
        <mxCell id="y_IT6c1gXUOtqLj8L9jw-32" value="" style="endArrow=classic;html=1;rounded=0;" edge="1" parent="WIyWlLk6GJQsqaUBKTNV-1">
          <mxGeometry width="50" height="50" relative="1" as="geometry">
            <mxPoint x="390" y="410" as="sourcePoint" />
            <mxPoint x="440" y="360" as="targetPoint" />
          </mxGeometry>
        </mxCell>
        <mxCell id="y_IT6c1gXUOtqLj8L9jw-34" value="MESSAGE" style="swimlane;whiteSpace=wrap;html=1;" vertex="1" parent="WIyWlLk6GJQsqaUBKTNV-1">
          <mxGeometry x="-190" y="340" width="260" height="90" as="geometry" />
        </mxCell>
        <mxCell id="y_IT6c1gXUOtqLj8L9jw-35" value="패스워드는 8~16사이, 영문대소문자,&lt;br&gt;&amp;nbsp;특수문자, 숫자 중 3개 이상을 포함해야 합니다." style="text;html=1;align=center;verticalAlign=middle;resizable=0;points=[];autosize=1;strokeColor=none;fillColor=none;" vertex="1" parent="y_IT6c1gXUOtqLj8L9jw-34">
          <mxGeometry x="-12" y="28" width="280" height="40" as="geometry" />
        </mxCell>
      </root>
    </mxGraphModel>
  </diagram>
</mxfile>
